G04 EAGLE Gerber RS-274X export*
G75*
%MOMM*%
%FSLAX34Y34*%
%LPD*%
%INSilkscreen Top*%
%IPPOS*%
%AMOC8*
5,1,8,0,0,1.08239X$1,22.5*%
G01*
%ADD10C,0.203200*%
%ADD11C,0.127000*%
%ADD12C,0.152400*%


D10*
X12700Y95050D02*
X12700Y107750D01*
X19050Y114100D01*
X31750Y114100D02*
X38100Y107750D01*
X12700Y69650D02*
X19050Y63300D01*
X12700Y69650D02*
X12700Y82350D01*
X19050Y88700D01*
X31750Y88700D02*
X38100Y82350D01*
X38100Y69650D01*
X31750Y63300D01*
X19050Y88700D02*
X12700Y95050D01*
X31750Y88700D02*
X38100Y95050D01*
X38100Y107750D01*
X12700Y31550D02*
X12700Y18850D01*
X12700Y31550D02*
X19050Y37900D01*
X31750Y37900D02*
X38100Y31550D01*
X19050Y37900D02*
X12700Y44250D01*
X12700Y56950D01*
X19050Y63300D01*
X31750Y63300D02*
X38100Y56950D01*
X38100Y44250D01*
X31750Y37900D01*
X31750Y12500D02*
X19050Y12500D01*
X12700Y18850D01*
X31750Y12500D02*
X38100Y18850D01*
X38100Y31550D01*
X31750Y114100D02*
X19050Y114100D01*
D11*
X9723Y14744D02*
X5969Y14744D01*
X9723Y14743D02*
X9788Y14741D01*
X9852Y14735D01*
X9916Y14725D01*
X9980Y14712D01*
X10042Y14694D01*
X10103Y14673D01*
X10163Y14649D01*
X10221Y14620D01*
X10278Y14588D01*
X10332Y14553D01*
X10384Y14515D01*
X10434Y14473D01*
X10481Y14429D01*
X10525Y14382D01*
X10567Y14332D01*
X10605Y14280D01*
X10640Y14226D01*
X10672Y14169D01*
X10701Y14111D01*
X10725Y14051D01*
X10746Y13990D01*
X10764Y13928D01*
X10777Y13864D01*
X10787Y13800D01*
X10793Y13736D01*
X10795Y13671D01*
X10795Y13135D01*
X7041Y17692D02*
X5969Y19032D01*
X10795Y19032D01*
X10795Y17692D02*
X10795Y20373D01*
D10*
X154400Y94050D02*
X154400Y106750D01*
X160750Y113100D01*
X173450Y113100D02*
X179800Y106750D01*
X154400Y68650D02*
X160750Y62300D01*
X154400Y68650D02*
X154400Y81350D01*
X160750Y87700D01*
X173450Y87700D02*
X179800Y81350D01*
X179800Y68650D01*
X173450Y62300D01*
X160750Y87700D02*
X154400Y94050D01*
X173450Y87700D02*
X179800Y94050D01*
X179800Y106750D01*
X154400Y30550D02*
X154400Y17850D01*
X154400Y30550D02*
X160750Y36900D01*
X173450Y36900D02*
X179800Y30550D01*
X160750Y36900D02*
X154400Y43250D01*
X154400Y55950D01*
X160750Y62300D01*
X173450Y62300D02*
X179800Y55950D01*
X179800Y43250D01*
X173450Y36900D01*
X173450Y11500D02*
X160750Y11500D01*
X154400Y17850D01*
X173450Y11500D02*
X179800Y17850D01*
X179800Y30550D01*
X173450Y113100D02*
X160750Y113100D01*
D11*
X151423Y13744D02*
X147669Y13744D01*
X151423Y13743D02*
X151488Y13741D01*
X151552Y13735D01*
X151616Y13725D01*
X151680Y13712D01*
X151742Y13694D01*
X151803Y13673D01*
X151863Y13649D01*
X151921Y13620D01*
X151978Y13588D01*
X152032Y13553D01*
X152084Y13515D01*
X152134Y13473D01*
X152181Y13429D01*
X152225Y13382D01*
X152267Y13332D01*
X152305Y13280D01*
X152340Y13226D01*
X152372Y13169D01*
X152401Y13111D01*
X152425Y13051D01*
X152446Y12990D01*
X152464Y12928D01*
X152477Y12864D01*
X152487Y12800D01*
X152493Y12736D01*
X152495Y12671D01*
X152495Y12135D01*
X147669Y18166D02*
X147671Y18234D01*
X147677Y18301D01*
X147686Y18368D01*
X147699Y18435D01*
X147716Y18500D01*
X147737Y18565D01*
X147761Y18628D01*
X147789Y18690D01*
X147820Y18750D01*
X147854Y18808D01*
X147892Y18864D01*
X147932Y18919D01*
X147976Y18970D01*
X148023Y19019D01*
X148072Y19066D01*
X148123Y19110D01*
X148178Y19150D01*
X148234Y19188D01*
X148292Y19222D01*
X148352Y19253D01*
X148414Y19281D01*
X148477Y19305D01*
X148542Y19326D01*
X148607Y19343D01*
X148674Y19356D01*
X148741Y19365D01*
X148808Y19371D01*
X148876Y19373D01*
X147669Y18166D02*
X147671Y18088D01*
X147677Y18010D01*
X147687Y17933D01*
X147700Y17856D01*
X147718Y17780D01*
X147739Y17705D01*
X147764Y17631D01*
X147793Y17559D01*
X147825Y17488D01*
X147861Y17419D01*
X147900Y17351D01*
X147943Y17286D01*
X147989Y17223D01*
X148038Y17162D01*
X148090Y17104D01*
X148145Y17049D01*
X148202Y16996D01*
X148262Y16947D01*
X148325Y16900D01*
X148390Y16857D01*
X148456Y16817D01*
X148525Y16780D01*
X148596Y16747D01*
X148668Y16717D01*
X148742Y16691D01*
X149814Y18971D02*
X149765Y19020D01*
X149713Y19067D01*
X149658Y19110D01*
X149601Y19151D01*
X149542Y19189D01*
X149481Y19223D01*
X149418Y19254D01*
X149354Y19282D01*
X149288Y19306D01*
X149222Y19326D01*
X149154Y19343D01*
X149085Y19356D01*
X149016Y19365D01*
X148946Y19371D01*
X148876Y19373D01*
X149814Y18971D02*
X152495Y16692D01*
X152495Y19373D01*
D12*
X70676Y39630D02*
X70676Y42170D01*
X124524Y90430D02*
X124524Y92970D01*
X124524Y39630D02*
X70676Y39630D01*
X124524Y39630D02*
X124524Y42170D01*
X124524Y92970D02*
X100648Y92970D01*
X94552Y92970D01*
X70676Y92970D01*
X70676Y90430D01*
X94552Y92970D02*
X94554Y92861D01*
X94560Y92753D01*
X94569Y92644D01*
X94583Y92536D01*
X94600Y92429D01*
X94622Y92322D01*
X94647Y92216D01*
X94675Y92111D01*
X94708Y92007D01*
X94744Y91905D01*
X94784Y91804D01*
X94827Y91704D01*
X94874Y91606D01*
X94925Y91509D01*
X94979Y91415D01*
X95036Y91322D01*
X95096Y91232D01*
X95160Y91143D01*
X95227Y91057D01*
X95296Y90974D01*
X95369Y90893D01*
X95445Y90815D01*
X95523Y90739D01*
X95604Y90666D01*
X95687Y90597D01*
X95773Y90530D01*
X95862Y90466D01*
X95952Y90406D01*
X96045Y90349D01*
X96139Y90295D01*
X96236Y90244D01*
X96334Y90197D01*
X96434Y90154D01*
X96535Y90114D01*
X96637Y90078D01*
X96741Y90045D01*
X96846Y90017D01*
X96952Y89992D01*
X97059Y89970D01*
X97166Y89953D01*
X97274Y89939D01*
X97383Y89930D01*
X97491Y89924D01*
X97600Y89922D01*
X97709Y89924D01*
X97817Y89930D01*
X97926Y89939D01*
X98034Y89953D01*
X98141Y89970D01*
X98248Y89992D01*
X98354Y90017D01*
X98459Y90045D01*
X98563Y90078D01*
X98665Y90114D01*
X98766Y90154D01*
X98866Y90197D01*
X98964Y90244D01*
X99061Y90295D01*
X99155Y90349D01*
X99248Y90406D01*
X99338Y90466D01*
X99427Y90530D01*
X99513Y90597D01*
X99596Y90666D01*
X99677Y90739D01*
X99755Y90815D01*
X99831Y90893D01*
X99904Y90974D01*
X99973Y91057D01*
X100040Y91143D01*
X100104Y91232D01*
X100164Y91322D01*
X100221Y91415D01*
X100275Y91509D01*
X100326Y91606D01*
X100373Y91704D01*
X100416Y91804D01*
X100456Y91905D01*
X100492Y92007D01*
X100525Y92111D01*
X100553Y92216D01*
X100578Y92322D01*
X100600Y92429D01*
X100617Y92536D01*
X100631Y92644D01*
X100640Y92753D01*
X100646Y92861D01*
X100648Y92970D01*
X100646Y92861D01*
X100640Y92753D01*
X100631Y92644D01*
X100617Y92536D01*
X100600Y92429D01*
X100578Y92322D01*
X100553Y92216D01*
X100525Y92111D01*
X100492Y92007D01*
X100456Y91905D01*
X100416Y91804D01*
X100373Y91704D01*
X100326Y91606D01*
X100275Y91509D01*
X100221Y91415D01*
X100164Y91322D01*
X100104Y91232D01*
X100040Y91143D01*
X99973Y91057D01*
X99904Y90974D01*
X99831Y90893D01*
X99755Y90815D01*
X99677Y90739D01*
X99596Y90666D01*
X99513Y90597D01*
X99427Y90530D01*
X99338Y90466D01*
X99248Y90406D01*
X99155Y90349D01*
X99061Y90295D01*
X98964Y90244D01*
X98866Y90197D01*
X98766Y90154D01*
X98665Y90114D01*
X98563Y90078D01*
X98459Y90045D01*
X98354Y90017D01*
X98248Y89992D01*
X98141Y89970D01*
X98034Y89953D01*
X97926Y89939D01*
X97817Y89930D01*
X97709Y89924D01*
X97600Y89922D01*
X97491Y89924D01*
X97383Y89930D01*
X97274Y89939D01*
X97166Y89953D01*
X97059Y89970D01*
X96952Y89992D01*
X96846Y90017D01*
X96741Y90045D01*
X96637Y90078D01*
X96535Y90114D01*
X96434Y90154D01*
X96334Y90197D01*
X96236Y90244D01*
X96139Y90295D01*
X96045Y90349D01*
X95952Y90406D01*
X95862Y90466D01*
X95773Y90530D01*
X95687Y90597D01*
X95604Y90666D01*
X95523Y90739D01*
X95445Y90815D01*
X95369Y90893D01*
X95296Y90974D01*
X95227Y91057D01*
X95160Y91143D01*
X95096Y91232D01*
X95036Y91322D01*
X94979Y91415D01*
X94925Y91509D01*
X94874Y91606D01*
X94827Y91704D01*
X94784Y91804D01*
X94744Y91905D01*
X94708Y92007D01*
X94675Y92111D01*
X94647Y92216D01*
X94622Y92322D01*
X94600Y92429D01*
X94583Y92536D01*
X94569Y92644D01*
X94560Y92753D01*
X94554Y92861D01*
X94552Y92970D01*
D10*
X52346Y33505D02*
X52346Y19917D01*
X52347Y19917D02*
X52349Y19774D01*
X52355Y19632D01*
X52365Y19489D01*
X52378Y19347D01*
X52396Y19205D01*
X52417Y19064D01*
X52442Y18924D01*
X52471Y18784D01*
X52504Y18645D01*
X52541Y18507D01*
X52581Y18370D01*
X52625Y18234D01*
X52673Y18100D01*
X52725Y17967D01*
X52780Y17835D01*
X52838Y17705D01*
X52901Y17576D01*
X52966Y17450D01*
X53035Y17325D01*
X53108Y17202D01*
X53184Y17081D01*
X53263Y16962D01*
X53345Y16845D01*
X53431Y16731D01*
X53519Y16619D01*
X53611Y16509D01*
X53705Y16402D01*
X53803Y16298D01*
X53903Y16197D01*
X54006Y16098D01*
X54112Y16002D01*
X54220Y15909D01*
X54331Y15818D01*
X54444Y15731D01*
X54559Y15648D01*
X54677Y15567D01*
X54797Y15489D01*
X54919Y15415D01*
X55043Y15344D01*
X55169Y15277D01*
X55296Y15213D01*
X55426Y15153D01*
X55557Y15096D01*
X55689Y15042D01*
X55823Y14993D01*
X55958Y14947D01*
X56094Y14905D01*
X56232Y14866D01*
X56370Y14831D01*
X56510Y14800D01*
X56650Y14773D01*
X56791Y14750D01*
X56932Y14730D01*
X57074Y14715D01*
X57216Y14703D01*
X57359Y14695D01*
X57502Y14691D01*
X57644Y14691D01*
X57787Y14695D01*
X57930Y14703D01*
X58072Y14715D01*
X58214Y14730D01*
X58355Y14750D01*
X58496Y14773D01*
X58636Y14800D01*
X58776Y14831D01*
X58914Y14866D01*
X59052Y14905D01*
X59188Y14947D01*
X59323Y14993D01*
X59457Y15042D01*
X59589Y15096D01*
X59720Y15153D01*
X59850Y15213D01*
X59977Y15277D01*
X60103Y15344D01*
X60227Y15415D01*
X60349Y15489D01*
X60469Y15567D01*
X60587Y15648D01*
X60702Y15731D01*
X60815Y15818D01*
X60926Y15909D01*
X61034Y16002D01*
X61140Y16098D01*
X61243Y16197D01*
X61343Y16298D01*
X61441Y16402D01*
X61535Y16509D01*
X61627Y16619D01*
X61715Y16731D01*
X61801Y16845D01*
X61883Y16962D01*
X61962Y17081D01*
X62038Y17202D01*
X62111Y17325D01*
X62180Y17450D01*
X62245Y17576D01*
X62308Y17705D01*
X62366Y17835D01*
X62421Y17967D01*
X62473Y18100D01*
X62521Y18234D01*
X62565Y18370D01*
X62605Y18507D01*
X62642Y18645D01*
X62675Y18784D01*
X62704Y18924D01*
X62729Y19064D01*
X62750Y19205D01*
X62768Y19347D01*
X62781Y19489D01*
X62791Y19632D01*
X62797Y19774D01*
X62799Y19917D01*
X62799Y33505D01*
X70789Y29324D02*
X76016Y33505D01*
X76016Y14690D01*
X81242Y14690D02*
X70789Y14690D01*
M02*
