G04 EAGLE Gerber RS-274X export*
G75*
%MOMM*%
%FSLAX34Y34*%
%LPD*%
%INTop Copper*%
%IPPOS*%
%AMOC8*
5,1,8,0,0,1.08239X$1,22.5*%
G01*
%ADD10C,1.879600*%
%ADD11R,1.320800X0.558800*%
%ADD12C,0.609600*%

G36*
X595405Y441977D02*
X595405Y441977D01*
X595636Y441987D01*
X595690Y441997D01*
X595744Y442001D01*
X595970Y442049D01*
X596196Y442091D01*
X596248Y442108D01*
X596302Y442120D01*
X596518Y442199D01*
X596736Y442272D01*
X596785Y442297D01*
X596837Y442316D01*
X597040Y442424D01*
X597245Y442527D01*
X597291Y442558D01*
X597339Y442584D01*
X597525Y442720D01*
X597714Y442851D01*
X597755Y442888D01*
X597799Y442921D01*
X597964Y443081D01*
X598133Y443237D01*
X598168Y443280D01*
X598207Y443318D01*
X598348Y443500D01*
X598494Y443678D01*
X598522Y443726D01*
X598556Y443769D01*
X598670Y443969D01*
X598789Y444166D01*
X598811Y444216D01*
X598838Y444264D01*
X598923Y444478D01*
X599014Y444689D01*
X599028Y444742D01*
X599048Y444793D01*
X599103Y445018D01*
X599163Y445239D01*
X599167Y445283D01*
X599183Y445347D01*
X599238Y445914D01*
X599235Y445980D01*
X599239Y446024D01*
X599239Y458246D01*
X599231Y458361D01*
X599233Y458476D01*
X599211Y458644D01*
X599199Y458814D01*
X599175Y458927D01*
X599161Y459041D01*
X599116Y459205D01*
X599080Y459371D01*
X599041Y459480D01*
X599010Y459591D01*
X598943Y459747D01*
X598884Y459907D01*
X598830Y460008D01*
X598784Y460114D01*
X598696Y460259D01*
X598616Y460409D01*
X598548Y460502D01*
X598488Y460600D01*
X598380Y460732D01*
X598279Y460869D01*
X598199Y460951D01*
X598126Y461040D01*
X598000Y461155D01*
X597882Y461277D01*
X597791Y461348D01*
X597706Y461426D01*
X597566Y461522D01*
X597431Y461626D01*
X597331Y461683D01*
X597236Y461748D01*
X597084Y461824D01*
X596936Y461908D01*
X596829Y461951D01*
X596726Y462002D01*
X596565Y462055D01*
X596407Y462118D01*
X596294Y462145D01*
X596185Y462182D01*
X596018Y462212D01*
X595853Y462252D01*
X595738Y462264D01*
X595625Y462284D01*
X595455Y462291D01*
X595286Y462308D01*
X595171Y462303D01*
X595055Y462307D01*
X594886Y462290D01*
X594716Y462283D01*
X594603Y462262D01*
X594488Y462250D01*
X594323Y462210D01*
X594156Y462179D01*
X594047Y462142D01*
X593935Y462115D01*
X593777Y462052D01*
X593616Y461998D01*
X593513Y461946D01*
X593406Y461903D01*
X593259Y461819D01*
X593107Y461743D01*
X593012Y461677D01*
X592912Y461620D01*
X592823Y461547D01*
X592638Y461419D01*
X592394Y461194D01*
X592303Y461119D01*
X590963Y459779D01*
X586575Y457961D01*
X581825Y457961D01*
X577437Y459779D01*
X574095Y463121D01*
X574049Y463161D01*
X574008Y463205D01*
X573834Y463348D01*
X573665Y463495D01*
X573614Y463528D01*
X573567Y463566D01*
X573375Y463682D01*
X573187Y463805D01*
X573132Y463830D01*
X573080Y463861D01*
X572874Y463950D01*
X572670Y464045D01*
X572612Y464062D01*
X572556Y464086D01*
X572340Y464144D01*
X572124Y464210D01*
X572065Y464219D01*
X572007Y464235D01*
X571889Y464246D01*
X571561Y464297D01*
X571337Y464300D01*
X571222Y464311D01*
X544988Y464311D01*
X542934Y465162D01*
X541673Y466423D01*
X541628Y466463D01*
X541587Y466507D01*
X541413Y466649D01*
X541243Y466797D01*
X541192Y466830D01*
X541146Y466868D01*
X540953Y466985D01*
X540765Y467107D01*
X540710Y467132D01*
X540658Y467163D01*
X540452Y467252D01*
X540248Y467347D01*
X540190Y467364D01*
X540135Y467388D01*
X539918Y467446D01*
X539703Y467512D01*
X539643Y467521D01*
X539585Y467537D01*
X539468Y467548D01*
X539140Y467599D01*
X538915Y467602D01*
X538800Y467613D01*
X533285Y467613D01*
X533237Y467634D01*
X533236Y467634D01*
X533218Y467642D01*
X533056Y467686D01*
X532897Y467739D01*
X532781Y467760D01*
X532668Y467791D01*
X532554Y467802D01*
X532337Y467842D01*
X531999Y467856D01*
X531883Y467867D01*
X527307Y467867D01*
X526373Y468254D01*
X525658Y468969D01*
X525271Y469903D01*
X525271Y476501D01*
X525658Y477435D01*
X526373Y478150D01*
X527307Y478537D01*
X531883Y478537D01*
X532081Y478551D01*
X532279Y478556D01*
X532365Y478571D01*
X532451Y478577D01*
X532646Y478618D01*
X532841Y478651D01*
X532924Y478678D01*
X533009Y478696D01*
X533195Y478764D01*
X533384Y478824D01*
X533462Y478862D01*
X533544Y478892D01*
X533719Y478985D01*
X533898Y479071D01*
X533970Y479119D01*
X534046Y479160D01*
X534206Y479277D01*
X534371Y479388D01*
X534436Y479446D01*
X534506Y479497D01*
X534648Y479635D01*
X534796Y479768D01*
X534852Y479834D01*
X534914Y479894D01*
X535036Y480051D01*
X535164Y480203D01*
X535210Y480276D01*
X535263Y480345D01*
X535361Y480517D01*
X535467Y480685D01*
X535502Y480764D01*
X535545Y480840D01*
X535618Y481024D01*
X535699Y481206D01*
X535723Y481289D01*
X535755Y481369D01*
X535802Y481562D01*
X535857Y481753D01*
X535869Y481839D01*
X535889Y481923D01*
X535909Y482121D01*
X535936Y482317D01*
X535936Y482404D01*
X535945Y482490D01*
X535936Y482689D01*
X535936Y482887D01*
X535924Y482973D01*
X535920Y483060D01*
X535884Y483255D01*
X535856Y483451D01*
X535832Y483535D01*
X535816Y483620D01*
X535753Y483808D01*
X535698Y483999D01*
X535662Y484078D01*
X535635Y484160D01*
X535546Y484337D01*
X535465Y484519D01*
X535419Y484592D01*
X535380Y484669D01*
X535267Y484833D01*
X535161Y485001D01*
X535105Y485067D01*
X535056Y485138D01*
X534921Y485284D01*
X534793Y485436D01*
X534728Y485493D01*
X534670Y485557D01*
X534516Y485683D01*
X534368Y485815D01*
X534310Y485851D01*
X534229Y485918D01*
X533749Y486208D01*
X533741Y486213D01*
X533716Y486224D01*
X533700Y486234D01*
X533457Y486335D01*
X533218Y486438D01*
X533195Y486444D01*
X533174Y486453D01*
X532919Y486519D01*
X532668Y486587D01*
X532649Y486589D01*
X532622Y486595D01*
X532056Y486660D01*
X531951Y486657D01*
X531883Y486663D01*
X527307Y486663D01*
X526373Y487050D01*
X525658Y487765D01*
X525271Y488699D01*
X525271Y495297D01*
X525658Y496231D01*
X526373Y496946D01*
X527307Y497333D01*
X530164Y497333D01*
X530224Y497337D01*
X530285Y497335D01*
X530508Y497357D01*
X530732Y497373D01*
X530792Y497385D01*
X530852Y497391D01*
X531070Y497445D01*
X531290Y497492D01*
X531346Y497512D01*
X531405Y497527D01*
X531614Y497610D01*
X531825Y497688D01*
X531878Y497716D01*
X531934Y497738D01*
X532129Y497850D01*
X532327Y497956D01*
X532376Y497992D01*
X532428Y498022D01*
X532519Y498097D01*
X532787Y498293D01*
X532948Y498450D01*
X533037Y498523D01*
X534552Y500038D01*
X536606Y500889D01*
X571222Y500889D01*
X571282Y500893D01*
X571342Y500891D01*
X571566Y500913D01*
X571790Y500929D01*
X571849Y500941D01*
X571909Y500947D01*
X572128Y501001D01*
X572347Y501048D01*
X572404Y501068D01*
X572463Y501083D01*
X572671Y501166D01*
X572882Y501244D01*
X572936Y501272D01*
X572992Y501295D01*
X573186Y501406D01*
X573385Y501512D01*
X573434Y501548D01*
X573486Y501578D01*
X573577Y501653D01*
X573845Y501849D01*
X574006Y502006D01*
X574095Y502079D01*
X577437Y505421D01*
X581825Y507239D01*
X586575Y507239D01*
X590963Y505421D01*
X592303Y504081D01*
X592390Y504005D01*
X592470Y503923D01*
X592605Y503819D01*
X592733Y503707D01*
X592830Y503645D01*
X592921Y503574D01*
X593068Y503490D01*
X593211Y503398D01*
X593316Y503349D01*
X593416Y503292D01*
X593574Y503229D01*
X593728Y503158D01*
X593838Y503124D01*
X593945Y503082D01*
X594111Y503042D01*
X594273Y502992D01*
X594387Y502975D01*
X594499Y502948D01*
X594669Y502931D01*
X594836Y502905D01*
X594951Y502904D01*
X595066Y502892D01*
X595236Y502900D01*
X595406Y502897D01*
X595520Y502912D01*
X595636Y502917D01*
X595803Y502948D01*
X595971Y502970D01*
X596083Y503000D01*
X596196Y503021D01*
X596357Y503075D01*
X596521Y503120D01*
X596627Y503166D01*
X596736Y503202D01*
X596888Y503279D01*
X597044Y503346D01*
X597142Y503406D01*
X597245Y503457D01*
X597386Y503554D01*
X597530Y503643D01*
X597619Y503716D01*
X597714Y503781D01*
X597839Y503897D01*
X597971Y504004D01*
X598048Y504089D01*
X598133Y504168D01*
X598241Y504299D01*
X598356Y504424D01*
X598421Y504519D01*
X598494Y504609D01*
X598582Y504754D01*
X598678Y504894D01*
X598730Y504997D01*
X598789Y505096D01*
X598856Y505252D01*
X598932Y505404D01*
X598968Y505513D01*
X599014Y505619D01*
X599058Y505783D01*
X599112Y505945D01*
X599133Y506058D01*
X599163Y506169D01*
X599174Y506284D01*
X599214Y506505D01*
X599228Y506837D01*
X599239Y506954D01*
X599239Y515876D01*
X599223Y516105D01*
X599213Y516336D01*
X599203Y516390D01*
X599199Y516444D01*
X599151Y516670D01*
X599109Y516896D01*
X599092Y516948D01*
X599080Y517002D01*
X599001Y517218D01*
X598928Y517436D01*
X598903Y517485D01*
X598884Y517537D01*
X598776Y517740D01*
X598673Y517945D01*
X598642Y517991D01*
X598616Y518039D01*
X598480Y518225D01*
X598349Y518414D01*
X598312Y518455D01*
X598279Y518499D01*
X598119Y518664D01*
X597963Y518833D01*
X597920Y518868D01*
X597882Y518907D01*
X597700Y519048D01*
X597522Y519194D01*
X597474Y519222D01*
X597431Y519256D01*
X597231Y519370D01*
X597034Y519489D01*
X596984Y519511D01*
X596936Y519538D01*
X596722Y519623D01*
X596511Y519714D01*
X596458Y519728D01*
X596407Y519748D01*
X596182Y519803D01*
X595961Y519863D01*
X595917Y519867D01*
X595853Y519883D01*
X595286Y519938D01*
X595220Y519935D01*
X595176Y519939D01*
X496756Y519939D01*
X496641Y519931D01*
X496526Y519933D01*
X496357Y519911D01*
X496188Y519899D01*
X496075Y519875D01*
X495961Y519861D01*
X495796Y519816D01*
X495630Y519780D01*
X495522Y519741D01*
X495411Y519710D01*
X495255Y519643D01*
X495095Y519584D01*
X494994Y519530D01*
X494888Y519484D01*
X494743Y519396D01*
X494593Y519316D01*
X494500Y519248D01*
X494401Y519188D01*
X494270Y519080D01*
X494133Y518979D01*
X494050Y518899D01*
X493961Y518826D01*
X493847Y518701D01*
X493725Y518582D01*
X493654Y518491D01*
X493576Y518406D01*
X493480Y518266D01*
X493376Y518131D01*
X493319Y518031D01*
X493254Y517936D01*
X493178Y517784D01*
X493094Y517636D01*
X493051Y517529D01*
X493000Y517426D01*
X492946Y517265D01*
X492883Y517107D01*
X492856Y516994D01*
X492820Y516885D01*
X492789Y516718D01*
X492749Y516553D01*
X492738Y516438D01*
X492718Y516325D01*
X492711Y516155D01*
X492694Y515986D01*
X492699Y515871D01*
X492694Y515755D01*
X492711Y515586D01*
X492719Y515416D01*
X492740Y515303D01*
X492751Y515189D01*
X492792Y515023D01*
X492823Y514856D01*
X492859Y514747D01*
X492887Y514635D01*
X492950Y514477D01*
X493004Y514316D01*
X493056Y514213D01*
X493098Y514106D01*
X493183Y513959D01*
X493259Y513807D01*
X493325Y513712D01*
X493382Y513612D01*
X493455Y513523D01*
X493583Y513338D01*
X493808Y513094D01*
X493883Y513003D01*
X508363Y498523D01*
X508408Y498483D01*
X508449Y498439D01*
X508623Y498297D01*
X508793Y498149D01*
X508844Y498116D01*
X508890Y498078D01*
X509083Y497961D01*
X509271Y497839D01*
X509326Y497814D01*
X509378Y497783D01*
X509584Y497694D01*
X509788Y497599D01*
X509846Y497582D01*
X509901Y497558D01*
X510118Y497499D01*
X510333Y497434D01*
X510393Y497425D01*
X510451Y497409D01*
X510568Y497398D01*
X510896Y497347D01*
X511121Y497344D01*
X511236Y497333D01*
X514093Y497333D01*
X515027Y496946D01*
X515742Y496231D01*
X516129Y495297D01*
X516129Y488676D01*
X516084Y488527D01*
X516012Y488314D01*
X516001Y488254D01*
X515984Y488196D01*
X515950Y487975D01*
X515909Y487753D01*
X515907Y487693D01*
X515898Y487633D01*
X515895Y487409D01*
X515885Y487184D01*
X515891Y487124D01*
X515891Y487063D01*
X515919Y486840D01*
X515941Y486617D01*
X515956Y486558D01*
X515963Y486498D01*
X515998Y486385D01*
X516076Y486063D01*
X516129Y485932D01*
X516129Y479278D01*
X516084Y479129D01*
X516012Y478916D01*
X516001Y478856D01*
X515984Y478798D01*
X515950Y478577D01*
X515909Y478355D01*
X515907Y478295D01*
X515898Y478235D01*
X515895Y478011D01*
X515885Y477786D01*
X515891Y477726D01*
X515891Y477665D01*
X515919Y477442D01*
X515941Y477219D01*
X515956Y477160D01*
X515963Y477100D01*
X515998Y476987D01*
X516076Y476665D01*
X516129Y476534D01*
X516129Y469903D01*
X515742Y468969D01*
X515027Y468254D01*
X514093Y467867D01*
X511236Y467867D01*
X511176Y467863D01*
X511115Y467865D01*
X510892Y467843D01*
X510668Y467827D01*
X510608Y467815D01*
X510548Y467809D01*
X510330Y467755D01*
X510110Y467708D01*
X510054Y467688D01*
X509995Y467673D01*
X509786Y467590D01*
X509575Y467512D01*
X509522Y467484D01*
X509466Y467462D01*
X509271Y467350D01*
X509073Y467244D01*
X509024Y467208D01*
X508972Y467178D01*
X508881Y467103D01*
X508613Y466907D01*
X508452Y466750D01*
X508363Y466677D01*
X494148Y452462D01*
X492094Y451611D01*
X470178Y451611D01*
X470118Y451607D01*
X470058Y451609D01*
X469834Y451587D01*
X469610Y451571D01*
X469551Y451559D01*
X469491Y451553D01*
X469272Y451499D01*
X469053Y451452D01*
X468996Y451432D01*
X468937Y451417D01*
X468729Y451334D01*
X468518Y451256D01*
X468464Y451228D01*
X468408Y451206D01*
X468213Y451094D01*
X468015Y450988D01*
X467966Y450952D01*
X467914Y450922D01*
X467823Y450847D01*
X467555Y450651D01*
X467394Y450494D01*
X467305Y450421D01*
X465781Y448897D01*
X465705Y448810D01*
X465623Y448730D01*
X465519Y448595D01*
X465407Y448467D01*
X465345Y448370D01*
X465274Y448279D01*
X465190Y448131D01*
X465098Y447989D01*
X465049Y447884D01*
X464992Y447784D01*
X464929Y447626D01*
X464858Y447472D01*
X464824Y447362D01*
X464782Y447255D01*
X464742Y447089D01*
X464692Y446927D01*
X464675Y446813D01*
X464648Y446701D01*
X464631Y446531D01*
X464605Y446364D01*
X464604Y446249D01*
X464592Y446134D01*
X464600Y445964D01*
X464597Y445794D01*
X464612Y445680D01*
X464617Y445564D01*
X464648Y445397D01*
X464670Y445229D01*
X464700Y445117D01*
X464721Y445004D01*
X464775Y444843D01*
X464820Y444679D01*
X464866Y444573D01*
X464902Y444464D01*
X464978Y444312D01*
X465046Y444156D01*
X465106Y444058D01*
X465157Y443955D01*
X465254Y443815D01*
X465343Y443670D01*
X465416Y443581D01*
X465481Y443486D01*
X465597Y443361D01*
X465705Y443229D01*
X465789Y443152D01*
X465868Y443067D01*
X465999Y442959D01*
X466124Y442844D01*
X466219Y442779D01*
X466309Y442706D01*
X466454Y442618D01*
X466594Y442522D01*
X466697Y442470D01*
X466796Y442411D01*
X466952Y442344D01*
X467104Y442268D01*
X467214Y442232D01*
X467319Y442186D01*
X467483Y442142D01*
X467645Y442088D01*
X467758Y442067D01*
X467869Y442037D01*
X467984Y442026D01*
X468205Y441986D01*
X468537Y441972D01*
X468654Y441961D01*
X595176Y441961D01*
X595405Y441977D01*
G37*
G36*
X622418Y532074D02*
X622418Y532074D01*
X622645Y532077D01*
X622702Y532086D01*
X622760Y532088D01*
X622984Y532130D01*
X623208Y532165D01*
X623263Y532182D01*
X623320Y532192D01*
X623535Y532265D01*
X623753Y532331D01*
X623805Y532355D01*
X623860Y532374D01*
X624064Y532476D01*
X624270Y532572D01*
X624318Y532603D01*
X624369Y532629D01*
X624557Y532759D01*
X624747Y532882D01*
X624791Y532920D01*
X624838Y532953D01*
X625006Y533107D01*
X625177Y533256D01*
X625215Y533300D01*
X625257Y533339D01*
X625401Y533515D01*
X625550Y533687D01*
X625581Y533735D01*
X625618Y533780D01*
X625736Y533975D01*
X625859Y534166D01*
X625883Y534218D01*
X625913Y534267D01*
X626003Y534476D01*
X626098Y534683D01*
X626115Y534738D01*
X626138Y534791D01*
X626197Y535010D01*
X626263Y535228D01*
X626272Y535285D01*
X626287Y535341D01*
X626298Y535457D01*
X626350Y535791D01*
X626352Y536012D01*
X626363Y536126D01*
X626363Y546100D01*
X626347Y546329D01*
X626337Y546560D01*
X626327Y546614D01*
X626323Y546668D01*
X626275Y546894D01*
X626233Y547120D01*
X626216Y547172D01*
X626204Y547226D01*
X626125Y547442D01*
X626052Y547660D01*
X626027Y547709D01*
X626008Y547761D01*
X625900Y547964D01*
X625797Y548169D01*
X625766Y548215D01*
X625740Y548263D01*
X625604Y548449D01*
X625473Y548638D01*
X625436Y548679D01*
X625403Y548723D01*
X625243Y548888D01*
X625087Y549057D01*
X625044Y549092D01*
X625006Y549131D01*
X624824Y549272D01*
X624646Y549418D01*
X624598Y549446D01*
X624555Y549480D01*
X624355Y549594D01*
X624158Y549713D01*
X624108Y549735D01*
X624060Y549762D01*
X623846Y549847D01*
X623635Y549938D01*
X623582Y549952D01*
X623531Y549972D01*
X623306Y550027D01*
X623085Y550087D01*
X623041Y550091D01*
X622977Y550107D01*
X622410Y550162D01*
X622344Y550159D01*
X622300Y550163D01*
X419100Y550163D01*
X418871Y550147D01*
X418640Y550137D01*
X418586Y550127D01*
X418532Y550123D01*
X418306Y550075D01*
X418080Y550033D01*
X418028Y550016D01*
X417974Y550004D01*
X417758Y549925D01*
X417540Y549852D01*
X417491Y549827D01*
X417439Y549808D01*
X417236Y549700D01*
X417031Y549597D01*
X416985Y549566D01*
X416937Y549540D01*
X416751Y549404D01*
X416562Y549273D01*
X416521Y549236D01*
X416477Y549203D01*
X416312Y549043D01*
X416143Y548887D01*
X416108Y548844D01*
X416069Y548806D01*
X415928Y548624D01*
X415782Y548446D01*
X415754Y548398D01*
X415720Y548355D01*
X415606Y548155D01*
X415487Y547958D01*
X415465Y547908D01*
X415438Y547860D01*
X415353Y547646D01*
X415262Y547435D01*
X415248Y547382D01*
X415228Y547331D01*
X415173Y547106D01*
X415113Y546885D01*
X415109Y546841D01*
X415094Y546777D01*
X415038Y546210D01*
X415041Y546144D01*
X415037Y546100D01*
X415037Y536609D01*
X415041Y536551D01*
X415038Y536493D01*
X415061Y536267D01*
X415077Y536040D01*
X415089Y535984D01*
X415094Y535926D01*
X415148Y535705D01*
X415196Y535483D01*
X415216Y535429D01*
X415229Y535373D01*
X415313Y535162D01*
X415392Y534948D01*
X415419Y534897D01*
X415440Y534843D01*
X415553Y534647D01*
X415660Y534445D01*
X415694Y534399D01*
X415723Y534349D01*
X415863Y534169D01*
X415997Y533986D01*
X416037Y533944D01*
X416072Y533899D01*
X416236Y533740D01*
X416394Y533577D01*
X416440Y533542D01*
X416481Y533502D01*
X416665Y533367D01*
X416845Y533229D01*
X416895Y533200D01*
X416942Y533166D01*
X417142Y533059D01*
X417340Y532946D01*
X417394Y532925D01*
X417444Y532898D01*
X417657Y532820D01*
X417869Y532736D01*
X417926Y532722D01*
X417980Y532703D01*
X418202Y532656D01*
X418423Y532602D01*
X418481Y532596D01*
X418537Y532584D01*
X418764Y532569D01*
X418990Y532547D01*
X419048Y532549D01*
X419106Y532545D01*
X419332Y532562D01*
X419560Y532571D01*
X419616Y532582D01*
X419674Y532586D01*
X419897Y532634D01*
X420120Y532675D01*
X420174Y532694D01*
X420231Y532706D01*
X420444Y532784D01*
X420660Y532857D01*
X420712Y532883D01*
X420766Y532902D01*
X420966Y533010D01*
X421169Y533112D01*
X421217Y533145D01*
X421268Y533172D01*
X421451Y533306D01*
X421638Y533436D01*
X421681Y533475D01*
X421727Y533509D01*
X421890Y533667D01*
X422057Y533822D01*
X422094Y533867D01*
X422135Y533907D01*
X422274Y534087D01*
X422418Y534263D01*
X422448Y534312D01*
X422483Y534358D01*
X422538Y534461D01*
X422713Y534750D01*
X422800Y534953D01*
X422854Y535054D01*
X423186Y535856D01*
X426044Y538714D01*
X429779Y540261D01*
X611421Y540261D01*
X615156Y538714D01*
X618014Y535856D01*
X618546Y534571D01*
X618572Y534519D01*
X618592Y534465D01*
X618699Y534264D01*
X618800Y534061D01*
X618833Y534013D01*
X618860Y533963D01*
X618995Y533779D01*
X619124Y533592D01*
X619163Y533549D01*
X619197Y533503D01*
X619355Y533340D01*
X619509Y533172D01*
X619554Y533136D01*
X619594Y533094D01*
X619774Y532955D01*
X619950Y532811D01*
X619999Y532781D01*
X620045Y532746D01*
X620242Y532633D01*
X620437Y532515D01*
X620490Y532492D01*
X620540Y532463D01*
X620752Y532379D01*
X620960Y532290D01*
X621016Y532275D01*
X621069Y532253D01*
X621291Y532200D01*
X621510Y532140D01*
X621567Y532133D01*
X621623Y532119D01*
X621850Y532097D01*
X622075Y532069D01*
X622133Y532069D01*
X622190Y532064D01*
X622418Y532074D01*
G37*
G36*
X571282Y475493D02*
X571282Y475493D01*
X571342Y475491D01*
X571566Y475513D01*
X571790Y475529D01*
X571849Y475541D01*
X571909Y475547D01*
X572128Y475601D01*
X572347Y475648D01*
X572404Y475668D01*
X572463Y475683D01*
X572671Y475766D01*
X572882Y475844D01*
X572936Y475872D01*
X572992Y475895D01*
X573186Y476006D01*
X573385Y476112D01*
X573434Y476148D01*
X573486Y476178D01*
X573577Y476253D01*
X573845Y476449D01*
X574006Y476606D01*
X574095Y476679D01*
X577143Y479727D01*
X577294Y479900D01*
X577449Y480070D01*
X577481Y480116D01*
X577517Y480157D01*
X577642Y480350D01*
X577772Y480540D01*
X577797Y480589D01*
X577826Y480635D01*
X577923Y480844D01*
X578026Y481050D01*
X578043Y481102D01*
X578066Y481152D01*
X578133Y481372D01*
X578206Y481591D01*
X578216Y481645D01*
X578232Y481697D01*
X578267Y481924D01*
X578308Y482151D01*
X578310Y482206D01*
X578319Y482260D01*
X578322Y482490D01*
X578331Y482721D01*
X578326Y482775D01*
X578327Y482830D01*
X578297Y483059D01*
X578274Y483288D01*
X578261Y483341D01*
X578254Y483395D01*
X578194Y483618D01*
X578139Y483841D01*
X578118Y483892D01*
X578104Y483945D01*
X578013Y484156D01*
X577927Y484370D01*
X577900Y484418D01*
X577878Y484468D01*
X577758Y484664D01*
X577644Y484864D01*
X577615Y484899D01*
X577581Y484954D01*
X577219Y485395D01*
X577171Y485439D01*
X577143Y485473D01*
X574095Y488521D01*
X574049Y488561D01*
X574008Y488605D01*
X573834Y488747D01*
X573665Y488895D01*
X573614Y488928D01*
X573567Y488966D01*
X573375Y489083D01*
X573187Y489205D01*
X573132Y489230D01*
X573080Y489261D01*
X572874Y489350D01*
X572670Y489445D01*
X572612Y489462D01*
X572556Y489486D01*
X572340Y489544D01*
X572124Y489610D01*
X572065Y489619D01*
X572007Y489635D01*
X571889Y489646D01*
X571561Y489697D01*
X571337Y489700D01*
X571222Y489711D01*
X546695Y489711D01*
X546692Y489711D01*
X546689Y489711D01*
X546410Y489691D01*
X546127Y489671D01*
X546124Y489671D01*
X546121Y489671D01*
X545839Y489610D01*
X545570Y489552D01*
X545567Y489551D01*
X545564Y489551D01*
X545295Y489452D01*
X545034Y489356D01*
X545032Y489355D01*
X545029Y489354D01*
X544781Y489221D01*
X544532Y489088D01*
X544530Y489086D01*
X544527Y489085D01*
X544292Y488912D01*
X544072Y488751D01*
X544070Y488749D01*
X544068Y488748D01*
X543859Y488544D01*
X543664Y488354D01*
X543662Y488352D01*
X543660Y488350D01*
X543484Y488121D01*
X543325Y487916D01*
X542459Y487050D01*
X541392Y486608D01*
X541340Y486582D01*
X541286Y486562D01*
X541085Y486455D01*
X540882Y486354D01*
X540835Y486321D01*
X540784Y486294D01*
X540600Y486159D01*
X540413Y486030D01*
X540370Y485991D01*
X540324Y485957D01*
X540161Y485799D01*
X539993Y485645D01*
X539957Y485600D01*
X539915Y485560D01*
X539776Y485380D01*
X539632Y485204D01*
X539602Y485155D01*
X539567Y485109D01*
X539454Y484911D01*
X539336Y484717D01*
X539313Y484664D01*
X539284Y484614D01*
X539200Y484402D01*
X539111Y484194D01*
X539096Y484138D01*
X539074Y484085D01*
X539020Y483862D01*
X538961Y483644D01*
X538954Y483587D01*
X538940Y483531D01*
X538918Y483304D01*
X538890Y483079D01*
X538891Y483021D01*
X538885Y482964D01*
X538895Y482736D01*
X538898Y482509D01*
X538907Y482452D01*
X538910Y482394D01*
X538951Y482171D01*
X538986Y481946D01*
X539003Y481891D01*
X539014Y481834D01*
X539086Y481618D01*
X539152Y481401D01*
X539176Y481349D01*
X539195Y481294D01*
X539297Y481090D01*
X539393Y480884D01*
X539424Y480836D01*
X539450Y480785D01*
X539579Y480597D01*
X539703Y480407D01*
X539741Y480363D01*
X539774Y480316D01*
X539928Y480148D01*
X540077Y479977D01*
X540121Y479939D01*
X540160Y479897D01*
X540337Y479752D01*
X540508Y479604D01*
X540556Y479573D01*
X540601Y479536D01*
X540796Y479418D01*
X540987Y479295D01*
X541039Y479270D01*
X541088Y479241D01*
X541297Y479151D01*
X541504Y479056D01*
X541559Y479039D01*
X541612Y479016D01*
X541831Y478957D01*
X542049Y478891D01*
X542106Y478882D01*
X542162Y478867D01*
X542278Y478856D01*
X542613Y478805D01*
X542833Y478802D01*
X542947Y478791D01*
X543910Y478791D01*
X545964Y477940D01*
X547225Y476679D01*
X547270Y476639D01*
X547311Y476595D01*
X547485Y476453D01*
X547655Y476305D01*
X547706Y476272D01*
X547752Y476234D01*
X547945Y476117D01*
X548133Y475995D01*
X548188Y475970D01*
X548240Y475939D01*
X548446Y475850D01*
X548650Y475755D01*
X548708Y475738D01*
X548763Y475714D01*
X548980Y475656D01*
X549195Y475590D01*
X549255Y475581D01*
X549313Y475565D01*
X549430Y475554D01*
X549758Y475503D01*
X549983Y475500D01*
X550098Y475489D01*
X571222Y475489D01*
X571282Y475493D01*
G37*
G36*
X487044Y462793D02*
X487044Y462793D01*
X487105Y462791D01*
X487328Y462813D01*
X487552Y462829D01*
X487612Y462841D01*
X487672Y462847D01*
X487890Y462901D01*
X488110Y462948D01*
X488166Y462968D01*
X488225Y462983D01*
X488434Y463066D01*
X488645Y463144D01*
X488698Y463172D01*
X488754Y463194D01*
X488949Y463306D01*
X489147Y463412D01*
X489196Y463448D01*
X489248Y463478D01*
X489339Y463553D01*
X489607Y463749D01*
X489768Y463906D01*
X489857Y463979D01*
X495953Y470075D01*
X496029Y470162D01*
X496111Y470242D01*
X496215Y470377D01*
X496327Y470505D01*
X496390Y470602D01*
X496460Y470693D01*
X496544Y470840D01*
X496637Y470983D01*
X496685Y471088D01*
X496742Y471188D01*
X496805Y471346D01*
X496877Y471500D01*
X496910Y471610D01*
X496953Y471717D01*
X496993Y471883D01*
X497042Y472045D01*
X497059Y472159D01*
X497087Y472271D01*
X497103Y472441D01*
X497129Y472608D01*
X497131Y472723D01*
X497142Y472838D01*
X497135Y473008D01*
X497137Y473178D01*
X497122Y473292D01*
X497117Y473408D01*
X497086Y473575D01*
X497065Y473743D01*
X497034Y473855D01*
X497013Y473968D01*
X496959Y474129D01*
X496914Y474293D01*
X496869Y474399D01*
X496832Y474508D01*
X496756Y474660D01*
X496688Y474816D01*
X496628Y474914D01*
X496577Y475017D01*
X496480Y475157D01*
X496392Y475302D01*
X496318Y475391D01*
X496253Y475486D01*
X496138Y475611D01*
X496030Y475743D01*
X495945Y475820D01*
X495867Y475905D01*
X495735Y476013D01*
X495610Y476128D01*
X495515Y476193D01*
X495426Y476266D01*
X495280Y476354D01*
X495140Y476450D01*
X495037Y476502D01*
X494938Y476561D01*
X494782Y476628D01*
X494630Y476704D01*
X494521Y476740D01*
X494415Y476786D01*
X494251Y476830D01*
X494089Y476884D01*
X493976Y476905D01*
X493865Y476935D01*
X493750Y476946D01*
X493529Y476986D01*
X493197Y477000D01*
X493080Y477011D01*
X470178Y477011D01*
X470118Y477007D01*
X470058Y477009D01*
X469834Y476987D01*
X469610Y476971D01*
X469551Y476959D01*
X469491Y476953D01*
X469272Y476899D01*
X469053Y476852D01*
X468996Y476832D01*
X468937Y476817D01*
X468729Y476734D01*
X468518Y476656D01*
X468464Y476628D01*
X468408Y476605D01*
X468214Y476494D01*
X468015Y476388D01*
X467966Y476352D01*
X467914Y476322D01*
X467823Y476247D01*
X467555Y476051D01*
X467394Y475894D01*
X467305Y475821D01*
X464257Y472773D01*
X464106Y472600D01*
X463951Y472430D01*
X463919Y472384D01*
X463883Y472343D01*
X463758Y472150D01*
X463628Y471960D01*
X463603Y471911D01*
X463574Y471865D01*
X463477Y471656D01*
X463374Y471450D01*
X463357Y471398D01*
X463334Y471348D01*
X463267Y471128D01*
X463194Y470909D01*
X463184Y470855D01*
X463168Y470803D01*
X463133Y470576D01*
X463092Y470349D01*
X463090Y470294D01*
X463081Y470240D01*
X463078Y470010D01*
X463069Y469779D01*
X463074Y469725D01*
X463073Y469670D01*
X463103Y469441D01*
X463126Y469212D01*
X463139Y469159D01*
X463146Y469105D01*
X463206Y468882D01*
X463261Y468659D01*
X463282Y468608D01*
X463296Y468555D01*
X463387Y468344D01*
X463473Y468130D01*
X463500Y468082D01*
X463522Y468032D01*
X463642Y467836D01*
X463756Y467636D01*
X463785Y467601D01*
X463819Y467546D01*
X464181Y467105D01*
X464229Y467061D01*
X464257Y467027D01*
X467305Y463979D01*
X467351Y463939D01*
X467392Y463895D01*
X467566Y463753D01*
X467735Y463605D01*
X467786Y463572D01*
X467833Y463534D01*
X468025Y463417D01*
X468213Y463295D01*
X468268Y463270D01*
X468320Y463239D01*
X468526Y463150D01*
X468730Y463055D01*
X468788Y463038D01*
X468844Y463014D01*
X469060Y462956D01*
X469276Y462890D01*
X469335Y462881D01*
X469393Y462865D01*
X469511Y462854D01*
X469839Y462803D01*
X470063Y462800D01*
X470178Y462789D01*
X486984Y462789D01*
X487044Y462793D01*
G37*
G36*
X493195Y488197D02*
X493195Y488197D01*
X493310Y488195D01*
X493479Y488217D01*
X493648Y488229D01*
X493761Y488253D01*
X493875Y488267D01*
X494040Y488312D01*
X494206Y488348D01*
X494314Y488387D01*
X494425Y488418D01*
X494581Y488485D01*
X494741Y488544D01*
X494842Y488598D01*
X494948Y488644D01*
X495093Y488732D01*
X495243Y488812D01*
X495336Y488880D01*
X495435Y488940D01*
X495566Y489048D01*
X495703Y489149D01*
X495786Y489229D01*
X495875Y489302D01*
X495989Y489427D01*
X496111Y489546D01*
X496182Y489637D01*
X496260Y489722D01*
X496356Y489862D01*
X496460Y489997D01*
X496517Y490097D01*
X496582Y490192D01*
X496658Y490344D01*
X496742Y490492D01*
X496785Y490599D01*
X496836Y490702D01*
X496890Y490863D01*
X496953Y491021D01*
X496980Y491134D01*
X497016Y491243D01*
X497047Y491410D01*
X497087Y491575D01*
X497098Y491690D01*
X497118Y491803D01*
X497125Y491973D01*
X497142Y492142D01*
X497137Y492257D01*
X497142Y492373D01*
X497125Y492542D01*
X497117Y492712D01*
X497096Y492825D01*
X497085Y492939D01*
X497044Y493105D01*
X497013Y493272D01*
X496977Y493381D01*
X496949Y493493D01*
X496886Y493651D01*
X496832Y493812D01*
X496780Y493915D01*
X496738Y494022D01*
X496653Y494169D01*
X496577Y494321D01*
X496511Y494416D01*
X496454Y494516D01*
X496381Y494605D01*
X496253Y494790D01*
X496028Y495034D01*
X495953Y495125D01*
X489857Y501221D01*
X489812Y501261D01*
X489771Y501305D01*
X489596Y501448D01*
X489427Y501595D01*
X489377Y501628D01*
X489330Y501666D01*
X489137Y501783D01*
X488949Y501905D01*
X488894Y501930D01*
X488842Y501961D01*
X488636Y502050D01*
X488432Y502145D01*
X488374Y502162D01*
X488319Y502186D01*
X488102Y502245D01*
X487887Y502310D01*
X487827Y502319D01*
X487769Y502335D01*
X487652Y502346D01*
X487324Y502397D01*
X487099Y502400D01*
X486984Y502411D01*
X470178Y502411D01*
X470118Y502407D01*
X470058Y502409D01*
X469834Y502387D01*
X469610Y502371D01*
X469551Y502359D01*
X469491Y502353D01*
X469272Y502299D01*
X469053Y502252D01*
X468996Y502232D01*
X468937Y502217D01*
X468729Y502134D01*
X468518Y502056D01*
X468464Y502028D01*
X468408Y502005D01*
X468214Y501894D01*
X468015Y501788D01*
X467966Y501752D01*
X467914Y501722D01*
X467823Y501647D01*
X467555Y501451D01*
X467394Y501294D01*
X467305Y501221D01*
X464257Y498173D01*
X464106Y498000D01*
X463951Y497830D01*
X463919Y497784D01*
X463883Y497743D01*
X463758Y497550D01*
X463628Y497360D01*
X463603Y497311D01*
X463574Y497265D01*
X463477Y497056D01*
X463374Y496850D01*
X463357Y496798D01*
X463334Y496748D01*
X463267Y496527D01*
X463194Y496309D01*
X463184Y496255D01*
X463168Y496203D01*
X463133Y495976D01*
X463092Y495749D01*
X463090Y495694D01*
X463081Y495640D01*
X463078Y495410D01*
X463069Y495179D01*
X463074Y495125D01*
X463073Y495070D01*
X463103Y494841D01*
X463126Y494612D01*
X463139Y494559D01*
X463146Y494505D01*
X463206Y494282D01*
X463261Y494059D01*
X463282Y494008D01*
X463296Y493955D01*
X463387Y493744D01*
X463473Y493530D01*
X463500Y493482D01*
X463522Y493432D01*
X463642Y493236D01*
X463756Y493036D01*
X463785Y493001D01*
X463819Y492946D01*
X464181Y492505D01*
X464229Y492461D01*
X464257Y492427D01*
X467305Y489379D01*
X467351Y489339D01*
X467392Y489295D01*
X467566Y489153D01*
X467735Y489005D01*
X467786Y488972D01*
X467833Y488934D01*
X468025Y488817D01*
X468213Y488695D01*
X468268Y488670D01*
X468320Y488639D01*
X468526Y488550D01*
X468730Y488455D01*
X468788Y488438D01*
X468844Y488414D01*
X469060Y488356D01*
X469276Y488290D01*
X469335Y488281D01*
X469393Y488265D01*
X469511Y488254D01*
X469839Y488203D01*
X470063Y488200D01*
X470178Y488189D01*
X493080Y488189D01*
X493195Y488197D01*
G37*
G36*
X622529Y415053D02*
X622529Y415053D01*
X622760Y415063D01*
X622814Y415073D01*
X622868Y415077D01*
X623094Y415125D01*
X623320Y415167D01*
X623372Y415184D01*
X623426Y415196D01*
X623642Y415275D01*
X623860Y415348D01*
X623909Y415373D01*
X623961Y415392D01*
X624164Y415500D01*
X624369Y415603D01*
X624415Y415634D01*
X624463Y415660D01*
X624649Y415796D01*
X624838Y415927D01*
X624879Y415964D01*
X624923Y415997D01*
X625088Y416157D01*
X625257Y416313D01*
X625292Y416356D01*
X625331Y416394D01*
X625472Y416576D01*
X625618Y416754D01*
X625646Y416802D01*
X625680Y416845D01*
X625794Y417045D01*
X625913Y417242D01*
X625935Y417292D01*
X625962Y417340D01*
X626047Y417554D01*
X626138Y417765D01*
X626152Y417818D01*
X626172Y417869D01*
X626227Y418094D01*
X626287Y418315D01*
X626291Y418359D01*
X626307Y418423D01*
X626362Y418990D01*
X626359Y419056D01*
X626363Y419100D01*
X626363Y425774D01*
X626359Y425832D01*
X626362Y425889D01*
X626339Y426116D01*
X626323Y426343D01*
X626311Y426399D01*
X626306Y426456D01*
X626252Y426678D01*
X626204Y426900D01*
X626184Y426954D01*
X626171Y427010D01*
X626087Y427221D01*
X626008Y427435D01*
X625981Y427486D01*
X625960Y427539D01*
X625847Y427737D01*
X625740Y427937D01*
X625706Y427984D01*
X625677Y428034D01*
X625537Y428214D01*
X625403Y428397D01*
X625363Y428439D01*
X625328Y428484D01*
X625165Y428642D01*
X625006Y428806D01*
X624960Y428841D01*
X624919Y428881D01*
X624735Y429015D01*
X624555Y429154D01*
X624505Y429183D01*
X624459Y429217D01*
X624258Y429324D01*
X624060Y429437D01*
X624006Y429458D01*
X623956Y429485D01*
X623743Y429562D01*
X623531Y429647D01*
X623474Y429660D01*
X623420Y429680D01*
X623199Y429727D01*
X622977Y429781D01*
X622919Y429786D01*
X622863Y429798D01*
X622636Y429814D01*
X622410Y429836D01*
X622352Y429834D01*
X622295Y429838D01*
X622068Y429821D01*
X621840Y429812D01*
X621784Y429801D01*
X621726Y429797D01*
X621504Y429749D01*
X621280Y429708D01*
X621226Y429689D01*
X621169Y429677D01*
X620956Y429599D01*
X620740Y429526D01*
X620688Y429500D01*
X620634Y429480D01*
X620435Y429373D01*
X620231Y429271D01*
X620183Y429238D01*
X620132Y429211D01*
X619949Y429077D01*
X619762Y428947D01*
X619719Y428908D01*
X619673Y428874D01*
X619510Y428715D01*
X619343Y428561D01*
X619306Y428516D01*
X619265Y428476D01*
X619126Y428296D01*
X618982Y428120D01*
X618952Y428071D01*
X618917Y428025D01*
X618862Y427922D01*
X618687Y427633D01*
X618600Y427430D01*
X618546Y427329D01*
X618014Y426044D01*
X615156Y423186D01*
X614354Y422854D01*
X614302Y422828D01*
X614248Y422808D01*
X614047Y422701D01*
X613844Y422600D01*
X613796Y422567D01*
X613745Y422540D01*
X613562Y422405D01*
X613375Y422276D01*
X613332Y422237D01*
X613286Y422203D01*
X613123Y422045D01*
X612955Y421891D01*
X612919Y421846D01*
X612877Y421806D01*
X612738Y421626D01*
X612594Y421450D01*
X612564Y421401D01*
X612529Y421355D01*
X612416Y421158D01*
X612298Y420963D01*
X612275Y420910D01*
X612246Y420860D01*
X612162Y420648D01*
X612073Y420440D01*
X612057Y420384D01*
X612036Y420331D01*
X611982Y420109D01*
X611923Y419890D01*
X611916Y419833D01*
X611902Y419777D01*
X611880Y419550D01*
X611851Y419325D01*
X611852Y419267D01*
X611847Y419210D01*
X611857Y418982D01*
X611860Y418755D01*
X611869Y418698D01*
X611871Y418640D01*
X611913Y418417D01*
X611948Y418192D01*
X611965Y418137D01*
X611975Y418080D01*
X612048Y417865D01*
X612114Y417647D01*
X612138Y417595D01*
X612157Y417540D01*
X612259Y417336D01*
X612354Y417131D01*
X612386Y417082D01*
X612412Y417031D01*
X612541Y416843D01*
X612665Y416653D01*
X612703Y416609D01*
X612736Y416562D01*
X612890Y416394D01*
X613039Y416223D01*
X613083Y416185D01*
X613122Y416143D01*
X613298Y415999D01*
X613470Y415850D01*
X613518Y415819D01*
X613563Y415782D01*
X613757Y415664D01*
X613948Y415541D01*
X614001Y415517D01*
X614050Y415487D01*
X614259Y415397D01*
X614466Y415302D01*
X614521Y415285D01*
X614574Y415262D01*
X614793Y415203D01*
X615011Y415137D01*
X615068Y415128D01*
X615124Y415113D01*
X615240Y415102D01*
X615574Y415051D01*
X615795Y415048D01*
X615909Y415037D01*
X622300Y415037D01*
X622529Y415053D01*
G37*
G36*
X425349Y415041D02*
X425349Y415041D01*
X425407Y415038D01*
X425633Y415061D01*
X425860Y415077D01*
X425916Y415089D01*
X425974Y415094D01*
X426195Y415148D01*
X426417Y415196D01*
X426471Y415216D01*
X426527Y415229D01*
X426738Y415313D01*
X426952Y415392D01*
X427003Y415419D01*
X427057Y415440D01*
X427253Y415553D01*
X427455Y415660D01*
X427501Y415694D01*
X427551Y415723D01*
X427731Y415863D01*
X427914Y415997D01*
X427956Y416037D01*
X428001Y416072D01*
X428160Y416236D01*
X428323Y416394D01*
X428358Y416440D01*
X428398Y416481D01*
X428533Y416665D01*
X428671Y416845D01*
X428700Y416895D01*
X428734Y416942D01*
X428841Y417142D01*
X428954Y417340D01*
X428975Y417394D01*
X429002Y417444D01*
X429080Y417657D01*
X429164Y417869D01*
X429178Y417926D01*
X429197Y417980D01*
X429244Y418202D01*
X429298Y418423D01*
X429304Y418481D01*
X429316Y418537D01*
X429331Y418764D01*
X429353Y418990D01*
X429351Y419048D01*
X429355Y419106D01*
X429338Y419332D01*
X429329Y419560D01*
X429318Y419616D01*
X429314Y419674D01*
X429266Y419897D01*
X429225Y420120D01*
X429206Y420174D01*
X429194Y420231D01*
X429116Y420444D01*
X429043Y420660D01*
X429017Y420712D01*
X428998Y420766D01*
X428890Y420966D01*
X428788Y421169D01*
X428755Y421217D01*
X428728Y421268D01*
X428594Y421451D01*
X428464Y421638D01*
X428425Y421681D01*
X428391Y421727D01*
X428233Y421890D01*
X428078Y422057D01*
X428033Y422094D01*
X427993Y422135D01*
X427813Y422274D01*
X427637Y422418D01*
X427588Y422448D01*
X427542Y422483D01*
X427439Y422538D01*
X427150Y422713D01*
X426947Y422800D01*
X426846Y422854D01*
X426044Y423186D01*
X423186Y426044D01*
X422854Y426846D01*
X422828Y426898D01*
X422808Y426952D01*
X422701Y427153D01*
X422600Y427356D01*
X422567Y427404D01*
X422540Y427455D01*
X422405Y427638D01*
X422276Y427825D01*
X422237Y427868D01*
X422203Y427914D01*
X422045Y428077D01*
X421891Y428245D01*
X421846Y428281D01*
X421806Y428323D01*
X421626Y428462D01*
X421450Y428606D01*
X421401Y428636D01*
X421355Y428671D01*
X421158Y428784D01*
X420963Y428902D01*
X420910Y428925D01*
X420860Y428954D01*
X420648Y429038D01*
X420440Y429127D01*
X420384Y429143D01*
X420331Y429164D01*
X420109Y429218D01*
X419890Y429277D01*
X419833Y429284D01*
X419777Y429298D01*
X419550Y429320D01*
X419325Y429349D01*
X419267Y429348D01*
X419210Y429353D01*
X418982Y429343D01*
X418755Y429340D01*
X418698Y429331D01*
X418640Y429329D01*
X418417Y429287D01*
X418192Y429252D01*
X418137Y429235D01*
X418080Y429225D01*
X417865Y429152D01*
X417647Y429086D01*
X417595Y429062D01*
X417540Y429043D01*
X417336Y428941D01*
X417131Y428846D01*
X417082Y428814D01*
X417031Y428788D01*
X416843Y428659D01*
X416653Y428535D01*
X416609Y428497D01*
X416562Y428464D01*
X416395Y428310D01*
X416223Y428161D01*
X416185Y428117D01*
X416143Y428078D01*
X415999Y427902D01*
X415850Y427730D01*
X415819Y427682D01*
X415782Y427637D01*
X415664Y427443D01*
X415541Y427252D01*
X415517Y427199D01*
X415487Y427150D01*
X415397Y426941D01*
X415302Y426734D01*
X415285Y426679D01*
X415262Y426626D01*
X415203Y426407D01*
X415137Y426189D01*
X415128Y426132D01*
X415113Y426076D01*
X415102Y425960D01*
X415051Y425626D01*
X415048Y425405D01*
X415037Y425291D01*
X415037Y419100D01*
X415053Y418871D01*
X415063Y418640D01*
X415073Y418586D01*
X415077Y418532D01*
X415125Y418306D01*
X415167Y418080D01*
X415184Y418028D01*
X415196Y417974D01*
X415275Y417758D01*
X415348Y417540D01*
X415373Y417491D01*
X415392Y417439D01*
X415500Y417236D01*
X415603Y417031D01*
X415634Y416985D01*
X415660Y416937D01*
X415796Y416751D01*
X415927Y416562D01*
X415964Y416521D01*
X415997Y416477D01*
X416157Y416312D01*
X416313Y416143D01*
X416356Y416108D01*
X416394Y416069D01*
X416576Y415928D01*
X416754Y415782D01*
X416802Y415754D01*
X416845Y415720D01*
X417045Y415606D01*
X417242Y415487D01*
X417292Y415465D01*
X417340Y415438D01*
X417554Y415353D01*
X417765Y415262D01*
X417818Y415248D01*
X417869Y415228D01*
X418094Y415173D01*
X418315Y415113D01*
X418359Y415109D01*
X418423Y415094D01*
X418990Y415038D01*
X419056Y415041D01*
X419100Y415037D01*
X425291Y415037D01*
X425349Y415041D01*
G37*
G36*
X446029Y489997D02*
X446029Y489997D01*
X446145Y489993D01*
X446314Y490010D01*
X446484Y490017D01*
X446597Y490038D01*
X446711Y490050D01*
X446877Y490090D01*
X447044Y490121D01*
X447153Y490158D01*
X447265Y490185D01*
X447423Y490248D01*
X447584Y490302D01*
X447687Y490354D01*
X447794Y490397D01*
X447941Y490481D01*
X448093Y490557D01*
X448188Y490623D01*
X448288Y490680D01*
X448377Y490753D01*
X448562Y490881D01*
X448806Y491106D01*
X448897Y491181D01*
X450143Y492427D01*
X450294Y492601D01*
X450449Y492770D01*
X450481Y492815D01*
X450517Y492857D01*
X450642Y493050D01*
X450772Y493240D01*
X450796Y493289D01*
X450826Y493335D01*
X450923Y493544D01*
X451026Y493750D01*
X451043Y493802D01*
X451066Y493852D01*
X451133Y494072D01*
X451206Y494291D01*
X451216Y494345D01*
X451232Y494397D01*
X451267Y494625D01*
X451308Y494851D01*
X451310Y494906D01*
X451319Y494960D01*
X451322Y495190D01*
X451331Y495420D01*
X451326Y495475D01*
X451327Y495530D01*
X451297Y495758D01*
X451274Y495987D01*
X451261Y496041D01*
X451254Y496095D01*
X451194Y496318D01*
X451139Y496541D01*
X451119Y496592D01*
X451104Y496645D01*
X451012Y496857D01*
X450927Y497070D01*
X450900Y497117D01*
X450878Y497168D01*
X450758Y497365D01*
X450644Y497564D01*
X450616Y497598D01*
X450581Y497654D01*
X450219Y498095D01*
X450171Y498139D01*
X450143Y498173D01*
X448897Y499419D01*
X448810Y499495D01*
X448730Y499577D01*
X448595Y499681D01*
X448467Y499793D01*
X448370Y499855D01*
X448279Y499926D01*
X448131Y500010D01*
X447989Y500102D01*
X447884Y500151D01*
X447784Y500208D01*
X447626Y500271D01*
X447472Y500342D01*
X447362Y500376D01*
X447255Y500418D01*
X447089Y500458D01*
X446927Y500508D01*
X446813Y500525D01*
X446701Y500552D01*
X446531Y500569D01*
X446364Y500595D01*
X446249Y500596D01*
X446134Y500608D01*
X445964Y500600D01*
X445794Y500603D01*
X445680Y500588D01*
X445564Y500583D01*
X445397Y500552D01*
X445229Y500530D01*
X445117Y500500D01*
X445004Y500479D01*
X444843Y500425D01*
X444679Y500380D01*
X444573Y500334D01*
X444464Y500298D01*
X444312Y500222D01*
X444156Y500154D01*
X444058Y500094D01*
X443955Y500043D01*
X443815Y499946D01*
X443670Y499857D01*
X443581Y499784D01*
X443486Y499719D01*
X443361Y499604D01*
X443229Y499496D01*
X443152Y499411D01*
X443067Y499332D01*
X442959Y499201D01*
X442844Y499076D01*
X442779Y498981D01*
X442706Y498891D01*
X442618Y498746D01*
X442522Y498606D01*
X442470Y498503D01*
X442411Y498404D01*
X442344Y498248D01*
X442268Y498096D01*
X442232Y497986D01*
X442186Y497881D01*
X442142Y497717D01*
X442088Y497555D01*
X442067Y497442D01*
X442037Y497331D01*
X442026Y497216D01*
X441986Y496995D01*
X441972Y496663D01*
X441961Y496546D01*
X441961Y494054D01*
X441969Y493939D01*
X441967Y493824D01*
X441989Y493656D01*
X442001Y493486D01*
X442025Y493373D01*
X442039Y493259D01*
X442084Y493094D01*
X442120Y492929D01*
X442159Y492821D01*
X442190Y492709D01*
X442257Y492553D01*
X442316Y492393D01*
X442370Y492292D01*
X442416Y492186D01*
X442504Y492041D01*
X442584Y491891D01*
X442652Y491798D01*
X442712Y491700D01*
X442820Y491568D01*
X442921Y491431D01*
X443001Y491349D01*
X443074Y491260D01*
X443199Y491145D01*
X443318Y491023D01*
X443409Y490952D01*
X443494Y490874D01*
X443634Y490778D01*
X443769Y490674D01*
X443869Y490617D01*
X443964Y490552D01*
X444116Y490476D01*
X444264Y490392D01*
X444371Y490349D01*
X444474Y490298D01*
X444635Y490245D01*
X444793Y490182D01*
X444906Y490155D01*
X445015Y490118D01*
X445182Y490088D01*
X445347Y490048D01*
X445462Y490036D01*
X445575Y490016D01*
X445745Y490009D01*
X445914Y489992D01*
X446029Y489997D01*
G37*
G36*
X446029Y464597D02*
X446029Y464597D01*
X446145Y464593D01*
X446314Y464610D01*
X446484Y464617D01*
X446597Y464638D01*
X446711Y464650D01*
X446877Y464690D01*
X447044Y464721D01*
X447153Y464758D01*
X447265Y464785D01*
X447423Y464848D01*
X447584Y464902D01*
X447687Y464954D01*
X447794Y464997D01*
X447941Y465081D01*
X448093Y465157D01*
X448188Y465223D01*
X448288Y465280D01*
X448377Y465353D01*
X448562Y465481D01*
X448806Y465706D01*
X448897Y465781D01*
X450143Y467027D01*
X450294Y467201D01*
X450449Y467370D01*
X450481Y467415D01*
X450517Y467457D01*
X450642Y467650D01*
X450772Y467840D01*
X450796Y467889D01*
X450826Y467935D01*
X450923Y468144D01*
X451026Y468350D01*
X451043Y468402D01*
X451066Y468452D01*
X451133Y468672D01*
X451206Y468891D01*
X451216Y468945D01*
X451232Y468997D01*
X451267Y469225D01*
X451308Y469451D01*
X451310Y469506D01*
X451319Y469560D01*
X451322Y469790D01*
X451331Y470020D01*
X451326Y470075D01*
X451327Y470130D01*
X451297Y470358D01*
X451274Y470587D01*
X451261Y470641D01*
X451254Y470695D01*
X451194Y470918D01*
X451139Y471141D01*
X451119Y471192D01*
X451104Y471245D01*
X451012Y471457D01*
X450927Y471670D01*
X450900Y471717D01*
X450878Y471768D01*
X450758Y471965D01*
X450644Y472164D01*
X450616Y472198D01*
X450581Y472254D01*
X450219Y472695D01*
X450171Y472739D01*
X450143Y472773D01*
X448897Y474019D01*
X448810Y474095D01*
X448730Y474177D01*
X448595Y474281D01*
X448467Y474393D01*
X448370Y474455D01*
X448279Y474526D01*
X448131Y474610D01*
X447989Y474702D01*
X447884Y474751D01*
X447784Y474808D01*
X447626Y474871D01*
X447472Y474942D01*
X447362Y474976D01*
X447255Y475018D01*
X447089Y475058D01*
X446927Y475108D01*
X446813Y475125D01*
X446701Y475152D01*
X446531Y475169D01*
X446364Y475195D01*
X446249Y475196D01*
X446134Y475208D01*
X445964Y475200D01*
X445794Y475203D01*
X445680Y475188D01*
X445564Y475183D01*
X445397Y475152D01*
X445229Y475130D01*
X445117Y475100D01*
X445004Y475079D01*
X444843Y475025D01*
X444679Y474980D01*
X444573Y474934D01*
X444464Y474898D01*
X444312Y474822D01*
X444156Y474754D01*
X444058Y474694D01*
X443955Y474643D01*
X443815Y474546D01*
X443670Y474457D01*
X443581Y474384D01*
X443486Y474319D01*
X443361Y474204D01*
X443229Y474096D01*
X443152Y474011D01*
X443067Y473932D01*
X442959Y473801D01*
X442844Y473676D01*
X442779Y473581D01*
X442706Y473491D01*
X442618Y473346D01*
X442522Y473206D01*
X442470Y473103D01*
X442411Y473004D01*
X442344Y472848D01*
X442268Y472696D01*
X442232Y472586D01*
X442186Y472481D01*
X442142Y472317D01*
X442088Y472155D01*
X442067Y472042D01*
X442037Y471931D01*
X442026Y471816D01*
X441986Y471595D01*
X441972Y471263D01*
X441961Y471146D01*
X441961Y468654D01*
X441969Y468539D01*
X441967Y468424D01*
X441989Y468256D01*
X442001Y468086D01*
X442025Y467973D01*
X442039Y467859D01*
X442084Y467694D01*
X442120Y467529D01*
X442159Y467421D01*
X442190Y467309D01*
X442257Y467153D01*
X442316Y466993D01*
X442370Y466892D01*
X442416Y466786D01*
X442504Y466641D01*
X442584Y466491D01*
X442652Y466398D01*
X442712Y466300D01*
X442820Y466168D01*
X442921Y466031D01*
X443001Y465949D01*
X443074Y465860D01*
X443199Y465745D01*
X443318Y465623D01*
X443409Y465552D01*
X443494Y465474D01*
X443634Y465378D01*
X443769Y465274D01*
X443869Y465217D01*
X443964Y465152D01*
X444116Y465076D01*
X444264Y464992D01*
X444371Y464949D01*
X444474Y464898D01*
X444635Y464845D01*
X444793Y464782D01*
X444906Y464755D01*
X445015Y464718D01*
X445182Y464688D01*
X445347Y464648D01*
X445462Y464636D01*
X445575Y464616D01*
X445745Y464609D01*
X445914Y464592D01*
X446029Y464597D01*
G37*
G36*
X595236Y477500D02*
X595236Y477500D01*
X595406Y477497D01*
X595520Y477512D01*
X595636Y477517D01*
X595803Y477548D01*
X595971Y477570D01*
X596083Y477600D01*
X596196Y477621D01*
X596357Y477675D01*
X596521Y477720D01*
X596627Y477766D01*
X596736Y477802D01*
X596888Y477878D01*
X597044Y477946D01*
X597142Y478006D01*
X597245Y478057D01*
X597385Y478154D01*
X597530Y478243D01*
X597619Y478316D01*
X597714Y478381D01*
X597839Y478496D01*
X597971Y478604D01*
X598048Y478689D01*
X598133Y478768D01*
X598241Y478899D01*
X598356Y479024D01*
X598421Y479119D01*
X598494Y479209D01*
X598582Y479354D01*
X598678Y479494D01*
X598730Y479597D01*
X598789Y479696D01*
X598856Y479852D01*
X598932Y480004D01*
X598968Y480114D01*
X599014Y480219D01*
X599058Y480383D01*
X599112Y480545D01*
X599133Y480658D01*
X599163Y480769D01*
X599174Y480884D01*
X599214Y481105D01*
X599228Y481437D01*
X599239Y481554D01*
X599239Y483646D01*
X599231Y483761D01*
X599233Y483876D01*
X599211Y484044D01*
X599199Y484214D01*
X599175Y484327D01*
X599161Y484441D01*
X599116Y484606D01*
X599080Y484771D01*
X599041Y484879D01*
X599010Y484991D01*
X598943Y485147D01*
X598884Y485307D01*
X598830Y485408D01*
X598784Y485514D01*
X598696Y485659D01*
X598616Y485809D01*
X598548Y485902D01*
X598488Y486000D01*
X598380Y486132D01*
X598279Y486269D01*
X598199Y486351D01*
X598126Y486440D01*
X598001Y486555D01*
X597882Y486677D01*
X597791Y486748D01*
X597706Y486826D01*
X597566Y486922D01*
X597431Y487026D01*
X597331Y487083D01*
X597236Y487148D01*
X597084Y487224D01*
X596936Y487308D01*
X596829Y487351D01*
X596726Y487402D01*
X596565Y487455D01*
X596407Y487518D01*
X596294Y487545D01*
X596185Y487582D01*
X596018Y487612D01*
X595853Y487652D01*
X595738Y487664D01*
X595625Y487684D01*
X595455Y487691D01*
X595286Y487708D01*
X595171Y487703D01*
X595055Y487707D01*
X594886Y487690D01*
X594716Y487683D01*
X594603Y487662D01*
X594489Y487650D01*
X594323Y487610D01*
X594156Y487579D01*
X594047Y487542D01*
X593935Y487515D01*
X593777Y487452D01*
X593616Y487398D01*
X593513Y487346D01*
X593406Y487303D01*
X593259Y487219D01*
X593107Y487143D01*
X593012Y487077D01*
X592912Y487020D01*
X592823Y486947D01*
X592638Y486819D01*
X592394Y486594D01*
X592303Y486519D01*
X591257Y485473D01*
X591106Y485299D01*
X590951Y485130D01*
X590919Y485085D01*
X590883Y485043D01*
X590758Y484850D01*
X590628Y484660D01*
X590603Y484611D01*
X590574Y484565D01*
X590477Y484356D01*
X590374Y484150D01*
X590357Y484098D01*
X590334Y484048D01*
X590267Y483828D01*
X590194Y483609D01*
X590184Y483555D01*
X590168Y483503D01*
X590133Y483275D01*
X590092Y483049D01*
X590090Y482994D01*
X590081Y482940D01*
X590078Y482710D01*
X590069Y482480D01*
X590074Y482425D01*
X590073Y482370D01*
X590103Y482142D01*
X590126Y481913D01*
X590139Y481859D01*
X590146Y481805D01*
X590206Y481582D01*
X590261Y481359D01*
X590281Y481308D01*
X590296Y481255D01*
X590387Y481044D01*
X590473Y480830D01*
X590500Y480782D01*
X590522Y480732D01*
X590642Y480535D01*
X590756Y480336D01*
X590784Y480302D01*
X590819Y480246D01*
X591181Y479805D01*
X591229Y479761D01*
X591257Y479727D01*
X592303Y478681D01*
X592390Y478606D01*
X592470Y478523D01*
X592605Y478419D01*
X592733Y478307D01*
X592830Y478245D01*
X592921Y478174D01*
X593069Y478090D01*
X593211Y477998D01*
X593316Y477949D01*
X593416Y477892D01*
X593574Y477829D01*
X593728Y477758D01*
X593838Y477724D01*
X593945Y477682D01*
X594111Y477642D01*
X594273Y477592D01*
X594387Y477575D01*
X594499Y477548D01*
X594668Y477531D01*
X594836Y477505D01*
X594951Y477504D01*
X595066Y477492D01*
X595236Y477500D01*
G37*
D10*
X457200Y457200D03*
X457200Y482600D03*
X457200Y508000D03*
X584200Y495300D03*
X584200Y469900D03*
D11*
X506984Y491998D03*
X506984Y482600D03*
X506984Y473202D03*
X534416Y473202D03*
X534416Y491998D03*
D12*
X534416Y473202D02*
X542798Y473202D01*
X546100Y469900D01*
X584200Y469900D01*
X537718Y495300D02*
X534416Y491998D01*
X537718Y495300D02*
X584200Y495300D01*
X506984Y473202D02*
X490982Y457200D01*
X457200Y457200D01*
X457200Y508000D02*
X490982Y508000D01*
X506984Y491998D01*
X506984Y482600D02*
X457200Y482600D01*
M02*
