G04 EAGLE Gerber RS-274X export*
G75*
%MOMM*%
%FSLAX34Y34*%
%LPD*%
%INSilkscreen Top*%
%IPPOS*%
%AMOC8*
5,1,8,0,0,1.08239X$1,22.5*%
G01*
%ADD10C,0.152400*%
%ADD11R,2.032000X0.508000*%
%ADD12R,0.508000X1.905000*%
%ADD13C,0.127000*%
%ADD14C,0.203200*%
%ADD15C,0.508000*%
%ADD16R,0.762000X10.668000*%
%ADD17R,0.508000X0.762000*%


D10*
X114300Y158750D02*
X114300Y152400D01*
X120650Y142240D02*
X107950Y142240D01*
X114300Y152400D01*
X114300Y137160D01*
X120650Y142240D02*
X114300Y152400D01*
X107950Y152400D01*
X120650Y152400D02*
X120650Y149860D01*
X120650Y152400D02*
X114300Y152400D01*
X124460Y132080D02*
X124458Y131980D01*
X124452Y131881D01*
X124442Y131781D01*
X124429Y131683D01*
X124411Y131584D01*
X124390Y131487D01*
X124365Y131391D01*
X124336Y131295D01*
X124303Y131201D01*
X124267Y131108D01*
X124227Y131017D01*
X124183Y130927D01*
X124136Y130839D01*
X124086Y130753D01*
X124032Y130669D01*
X123975Y130587D01*
X123915Y130508D01*
X123851Y130430D01*
X123785Y130356D01*
X123716Y130284D01*
X123644Y130215D01*
X123570Y130149D01*
X123492Y130085D01*
X123413Y130025D01*
X123331Y129968D01*
X123247Y129914D01*
X123161Y129864D01*
X123073Y129817D01*
X122983Y129773D01*
X122892Y129733D01*
X122799Y129697D01*
X122705Y129664D01*
X122609Y129635D01*
X122513Y129610D01*
X122416Y129589D01*
X122317Y129571D01*
X122219Y129558D01*
X122119Y129548D01*
X122020Y129542D01*
X121920Y129540D01*
X124460Y172720D02*
X124458Y172820D01*
X124452Y172919D01*
X124442Y173019D01*
X124429Y173117D01*
X124411Y173216D01*
X124390Y173313D01*
X124365Y173409D01*
X124336Y173505D01*
X124303Y173599D01*
X124267Y173692D01*
X124227Y173783D01*
X124183Y173873D01*
X124136Y173961D01*
X124086Y174047D01*
X124032Y174131D01*
X123975Y174213D01*
X123915Y174292D01*
X123851Y174370D01*
X123785Y174444D01*
X123716Y174516D01*
X123644Y174585D01*
X123570Y174651D01*
X123492Y174715D01*
X123413Y174775D01*
X123331Y174832D01*
X123247Y174886D01*
X123161Y174936D01*
X123073Y174983D01*
X122983Y175027D01*
X122892Y175067D01*
X122799Y175103D01*
X122705Y175136D01*
X122609Y175165D01*
X122513Y175190D01*
X122416Y175211D01*
X122317Y175229D01*
X122219Y175242D01*
X122119Y175252D01*
X122020Y175258D01*
X121920Y175260D01*
X106680Y175260D02*
X106580Y175258D01*
X106481Y175252D01*
X106381Y175242D01*
X106283Y175229D01*
X106184Y175211D01*
X106087Y175190D01*
X105991Y175165D01*
X105895Y175136D01*
X105801Y175103D01*
X105708Y175067D01*
X105617Y175027D01*
X105527Y174983D01*
X105439Y174936D01*
X105353Y174886D01*
X105269Y174832D01*
X105187Y174775D01*
X105108Y174715D01*
X105030Y174651D01*
X104956Y174585D01*
X104884Y174516D01*
X104815Y174444D01*
X104749Y174370D01*
X104685Y174292D01*
X104625Y174213D01*
X104568Y174131D01*
X104514Y174047D01*
X104464Y173961D01*
X104417Y173873D01*
X104373Y173783D01*
X104333Y173692D01*
X104297Y173599D01*
X104264Y173505D01*
X104235Y173409D01*
X104210Y173313D01*
X104189Y173216D01*
X104171Y173117D01*
X104158Y173019D01*
X104148Y172919D01*
X104142Y172820D01*
X104140Y172720D01*
X104140Y132080D02*
X104142Y131980D01*
X104148Y131881D01*
X104158Y131781D01*
X104171Y131683D01*
X104189Y131584D01*
X104210Y131487D01*
X104235Y131391D01*
X104264Y131295D01*
X104297Y131201D01*
X104333Y131108D01*
X104373Y131017D01*
X104417Y130927D01*
X104464Y130839D01*
X104514Y130753D01*
X104568Y130669D01*
X104625Y130587D01*
X104685Y130508D01*
X104749Y130430D01*
X104815Y130356D01*
X104884Y130284D01*
X104956Y130215D01*
X105030Y130149D01*
X105108Y130085D01*
X105187Y130025D01*
X105269Y129968D01*
X105353Y129914D01*
X105439Y129864D01*
X105527Y129817D01*
X105617Y129773D01*
X105708Y129733D01*
X105801Y129697D01*
X105895Y129664D01*
X105991Y129635D01*
X106087Y129610D01*
X106184Y129589D01*
X106283Y129571D01*
X106381Y129558D01*
X106481Y129548D01*
X106580Y129542D01*
X106680Y129540D01*
X121920Y129540D01*
X121920Y175260D02*
X106680Y175260D01*
X124460Y172720D02*
X124460Y132080D01*
X104140Y132080D02*
X104140Y172720D01*
D11*
X114300Y168910D03*
D12*
X114300Y120015D03*
X114300Y184785D03*
D13*
X127635Y156464D02*
X139065Y156464D01*
X127635Y156464D02*
X127635Y159639D01*
X127637Y159750D01*
X127643Y159860D01*
X127652Y159971D01*
X127666Y160081D01*
X127683Y160190D01*
X127704Y160299D01*
X127729Y160407D01*
X127758Y160514D01*
X127790Y160620D01*
X127826Y160725D01*
X127866Y160828D01*
X127909Y160930D01*
X127956Y161031D01*
X128007Y161130D01*
X128060Y161227D01*
X128117Y161321D01*
X128178Y161414D01*
X128241Y161505D01*
X128308Y161594D01*
X128378Y161680D01*
X128451Y161763D01*
X128526Y161845D01*
X128604Y161923D01*
X128686Y161998D01*
X128769Y162071D01*
X128855Y162141D01*
X128944Y162208D01*
X129035Y162271D01*
X129128Y162332D01*
X129223Y162389D01*
X129319Y162442D01*
X129418Y162493D01*
X129519Y162540D01*
X129621Y162583D01*
X129724Y162623D01*
X129829Y162659D01*
X129935Y162691D01*
X130042Y162720D01*
X130150Y162745D01*
X130259Y162766D01*
X130368Y162783D01*
X130478Y162797D01*
X130589Y162806D01*
X130699Y162812D01*
X130810Y162814D01*
X135890Y162814D01*
X136001Y162812D01*
X136111Y162806D01*
X136222Y162797D01*
X136332Y162783D01*
X136441Y162766D01*
X136550Y162745D01*
X136658Y162720D01*
X136765Y162691D01*
X136871Y162659D01*
X136976Y162623D01*
X137079Y162583D01*
X137181Y162540D01*
X137282Y162493D01*
X137381Y162442D01*
X137478Y162389D01*
X137572Y162332D01*
X137665Y162271D01*
X137756Y162208D01*
X137845Y162141D01*
X137931Y162071D01*
X138014Y161998D01*
X138096Y161923D01*
X138174Y161845D01*
X138249Y161763D01*
X138322Y161680D01*
X138392Y161594D01*
X138459Y161505D01*
X138522Y161414D01*
X138583Y161321D01*
X138640Y161227D01*
X138693Y161130D01*
X138744Y161031D01*
X138791Y160930D01*
X138834Y160828D01*
X138874Y160725D01*
X138910Y160620D01*
X138942Y160514D01*
X138971Y160407D01*
X138996Y160299D01*
X139017Y160190D01*
X139034Y160081D01*
X139048Y159971D01*
X139057Y159860D01*
X139063Y159750D01*
X139065Y159639D01*
X139065Y156464D01*
X130175Y168275D02*
X127635Y171450D01*
X139065Y171450D01*
X139065Y168275D02*
X139065Y174625D01*
D14*
X203200Y234950D02*
X209550Y241300D01*
X222250Y241300D01*
X228600Y234950D01*
X228600Y222250D02*
X222250Y215900D01*
X209550Y215900D01*
X203200Y222250D01*
X171450Y241300D02*
X158750Y241300D01*
X171450Y241300D02*
X177800Y234950D01*
X177800Y222250D02*
X171450Y215900D01*
X177800Y234950D02*
X184150Y241300D01*
X196850Y241300D01*
X203200Y234950D01*
X203200Y222250D02*
X196850Y215900D01*
X184150Y215900D01*
X177800Y222250D01*
X152400Y222250D02*
X152400Y234950D01*
X158750Y241300D01*
X152400Y222250D02*
X158750Y215900D01*
X171450Y215900D01*
X228600Y222250D02*
X228600Y234950D01*
D13*
X154644Y244277D02*
X154644Y248031D01*
X154643Y244277D02*
X154641Y244212D01*
X154635Y244148D01*
X154625Y244084D01*
X154612Y244020D01*
X154594Y243958D01*
X154573Y243897D01*
X154549Y243837D01*
X154520Y243779D01*
X154488Y243722D01*
X154453Y243668D01*
X154415Y243616D01*
X154373Y243566D01*
X154329Y243519D01*
X154282Y243475D01*
X154232Y243433D01*
X154180Y243395D01*
X154126Y243360D01*
X154069Y243328D01*
X154011Y243299D01*
X153951Y243275D01*
X153890Y243254D01*
X153828Y243236D01*
X153764Y243223D01*
X153700Y243213D01*
X153636Y243207D01*
X153571Y243205D01*
X153035Y243205D01*
X157592Y246959D02*
X158932Y248031D01*
X158932Y243205D01*
X157592Y243205D02*
X160273Y243205D01*
D14*
X146050Y25400D02*
X133350Y25400D01*
X127000Y31750D01*
X127000Y44450D02*
X133350Y50800D01*
X171450Y25400D02*
X177800Y31750D01*
X171450Y25400D02*
X158750Y25400D01*
X152400Y31750D01*
X152400Y44450D02*
X158750Y50800D01*
X171450Y50800D01*
X177800Y44450D01*
X152400Y31750D02*
X146050Y25400D01*
X152400Y44450D02*
X146050Y50800D01*
X133350Y50800D01*
X209550Y25400D02*
X222250Y25400D01*
X209550Y25400D02*
X203200Y31750D01*
X203200Y44450D02*
X209550Y50800D01*
X203200Y31750D02*
X196850Y25400D01*
X184150Y25400D01*
X177800Y31750D01*
X177800Y44450D02*
X184150Y50800D01*
X196850Y50800D01*
X203200Y44450D01*
X228600Y44450D02*
X228600Y31750D01*
X222250Y25400D01*
X228600Y44450D02*
X222250Y50800D01*
X209550Y50800D01*
X127000Y44450D02*
X127000Y31750D01*
D13*
X222336Y23495D02*
X222336Y19741D01*
X222334Y19676D01*
X222328Y19612D01*
X222318Y19548D01*
X222305Y19484D01*
X222287Y19422D01*
X222266Y19361D01*
X222242Y19301D01*
X222213Y19243D01*
X222181Y19186D01*
X222146Y19132D01*
X222108Y19080D01*
X222066Y19030D01*
X222022Y18983D01*
X221975Y18939D01*
X221925Y18897D01*
X221873Y18859D01*
X221819Y18824D01*
X221762Y18792D01*
X221704Y18763D01*
X221644Y18739D01*
X221583Y18718D01*
X221521Y18700D01*
X221457Y18687D01*
X221393Y18677D01*
X221329Y18671D01*
X221264Y18669D01*
X220727Y18669D01*
X226759Y23495D02*
X226827Y23493D01*
X226894Y23487D01*
X226961Y23478D01*
X227028Y23465D01*
X227093Y23448D01*
X227158Y23427D01*
X227221Y23403D01*
X227283Y23375D01*
X227343Y23344D01*
X227401Y23310D01*
X227457Y23272D01*
X227512Y23232D01*
X227563Y23188D01*
X227612Y23141D01*
X227659Y23092D01*
X227703Y23041D01*
X227743Y22986D01*
X227781Y22930D01*
X227815Y22872D01*
X227846Y22812D01*
X227874Y22750D01*
X227898Y22687D01*
X227919Y22622D01*
X227936Y22557D01*
X227949Y22490D01*
X227958Y22423D01*
X227964Y22356D01*
X227966Y22288D01*
X226759Y23495D02*
X226681Y23493D01*
X226603Y23487D01*
X226526Y23477D01*
X226449Y23464D01*
X226373Y23446D01*
X226298Y23425D01*
X226224Y23400D01*
X226152Y23371D01*
X226081Y23339D01*
X226012Y23303D01*
X225944Y23264D01*
X225879Y23221D01*
X225816Y23175D01*
X225755Y23126D01*
X225697Y23074D01*
X225642Y23019D01*
X225589Y22962D01*
X225540Y22902D01*
X225493Y22839D01*
X225450Y22775D01*
X225410Y22708D01*
X225373Y22639D01*
X225340Y22568D01*
X225310Y22496D01*
X225284Y22423D01*
X227563Y21350D02*
X227612Y21399D01*
X227659Y21451D01*
X227702Y21506D01*
X227743Y21563D01*
X227781Y21622D01*
X227815Y21683D01*
X227846Y21746D01*
X227874Y21810D01*
X227898Y21876D01*
X227918Y21942D01*
X227935Y22010D01*
X227948Y22079D01*
X227957Y22148D01*
X227963Y22218D01*
X227965Y22288D01*
X227563Y21350D02*
X225284Y18669D01*
X227965Y18669D01*
D10*
X68580Y186690D02*
X66040Y189230D01*
X68580Y186690D02*
X68580Y92710D01*
X66040Y90170D01*
X66040Y189230D02*
X36830Y190500D01*
X36830Y88900D02*
X66040Y90170D01*
D15*
X62484Y94742D03*
D16*
X29210Y139700D03*
D12*
X35560Y95885D03*
D17*
X35560Y127000D03*
X35560Y152400D03*
D12*
X35560Y183515D03*
D13*
X76962Y89535D02*
X82042Y89535D01*
X76962Y89535D02*
X76851Y89537D01*
X76741Y89543D01*
X76630Y89552D01*
X76520Y89566D01*
X76411Y89583D01*
X76302Y89604D01*
X76194Y89629D01*
X76087Y89658D01*
X75981Y89690D01*
X75876Y89726D01*
X75773Y89766D01*
X75671Y89809D01*
X75570Y89856D01*
X75471Y89907D01*
X75375Y89960D01*
X75280Y90017D01*
X75187Y90078D01*
X75096Y90141D01*
X75007Y90208D01*
X74921Y90278D01*
X74838Y90351D01*
X74756Y90426D01*
X74678Y90504D01*
X74603Y90586D01*
X74530Y90669D01*
X74460Y90755D01*
X74393Y90844D01*
X74330Y90935D01*
X74269Y91028D01*
X74212Y91122D01*
X74159Y91219D01*
X74108Y91318D01*
X74061Y91419D01*
X74018Y91521D01*
X73978Y91624D01*
X73942Y91729D01*
X73910Y91835D01*
X73881Y91942D01*
X73856Y92050D01*
X73835Y92159D01*
X73818Y92268D01*
X73804Y92378D01*
X73795Y92489D01*
X73789Y92599D01*
X73787Y92710D01*
X73789Y92821D01*
X73795Y92931D01*
X73804Y93042D01*
X73818Y93152D01*
X73835Y93261D01*
X73856Y93370D01*
X73881Y93478D01*
X73910Y93585D01*
X73942Y93691D01*
X73978Y93796D01*
X74018Y93899D01*
X74061Y94001D01*
X74108Y94102D01*
X74159Y94201D01*
X74212Y94298D01*
X74269Y94392D01*
X74330Y94485D01*
X74393Y94576D01*
X74460Y94665D01*
X74530Y94751D01*
X74603Y94834D01*
X74678Y94916D01*
X74756Y94994D01*
X74838Y95069D01*
X74921Y95142D01*
X75007Y95212D01*
X75096Y95279D01*
X75187Y95342D01*
X75280Y95403D01*
X75375Y95460D01*
X75471Y95513D01*
X75570Y95564D01*
X75671Y95611D01*
X75773Y95654D01*
X75876Y95694D01*
X75981Y95730D01*
X76087Y95762D01*
X76194Y95791D01*
X76302Y95816D01*
X76411Y95837D01*
X76520Y95854D01*
X76630Y95868D01*
X76741Y95877D01*
X76851Y95883D01*
X76962Y95885D01*
X82042Y95885D01*
X82153Y95883D01*
X82263Y95877D01*
X82374Y95868D01*
X82484Y95854D01*
X82593Y95837D01*
X82702Y95816D01*
X82810Y95791D01*
X82917Y95762D01*
X83023Y95730D01*
X83128Y95694D01*
X83231Y95654D01*
X83333Y95611D01*
X83434Y95564D01*
X83533Y95513D01*
X83630Y95460D01*
X83724Y95403D01*
X83817Y95342D01*
X83908Y95279D01*
X83997Y95212D01*
X84083Y95142D01*
X84166Y95069D01*
X84248Y94994D01*
X84326Y94916D01*
X84401Y94834D01*
X84474Y94751D01*
X84544Y94665D01*
X84611Y94576D01*
X84674Y94485D01*
X84735Y94392D01*
X84792Y94297D01*
X84845Y94201D01*
X84896Y94102D01*
X84943Y94001D01*
X84986Y93899D01*
X85026Y93796D01*
X85062Y93691D01*
X85094Y93585D01*
X85123Y93478D01*
X85148Y93370D01*
X85169Y93261D01*
X85186Y93152D01*
X85200Y93042D01*
X85209Y92931D01*
X85215Y92821D01*
X85217Y92710D01*
X85215Y92599D01*
X85209Y92489D01*
X85200Y92378D01*
X85186Y92268D01*
X85169Y92159D01*
X85148Y92050D01*
X85123Y91942D01*
X85094Y91835D01*
X85062Y91729D01*
X85026Y91624D01*
X84986Y91521D01*
X84943Y91419D01*
X84896Y91318D01*
X84845Y91219D01*
X84792Y91122D01*
X84735Y91028D01*
X84674Y90935D01*
X84611Y90844D01*
X84544Y90755D01*
X84474Y90669D01*
X84401Y90586D01*
X84326Y90504D01*
X84248Y90426D01*
X84166Y90351D01*
X84083Y90278D01*
X83997Y90208D01*
X83908Y90141D01*
X83817Y90078D01*
X83724Y90017D01*
X83629Y89960D01*
X83533Y89907D01*
X83434Y89856D01*
X83333Y89809D01*
X83231Y89766D01*
X83128Y89726D01*
X83023Y89690D01*
X82917Y89658D01*
X82810Y89629D01*
X82702Y89604D01*
X82593Y89583D01*
X82484Y89566D01*
X82374Y89552D01*
X82263Y89543D01*
X82153Y89537D01*
X82042Y89535D01*
X82677Y94615D02*
X85217Y97155D01*
X76327Y100596D02*
X73787Y103771D01*
X85217Y103771D01*
X85217Y100596D02*
X85217Y106946D01*
M02*
